<?xml version="1.0" encoding="utf-8"?>
<!-- Generator: Adobe Illustrator 19.2.1, SVG Export Plug-In . SVG Version: 6.00 Build 0)  -->
<svg version="1.1" xmlns="http://www.w3.org/2000/svg" xmlns:xlink="http://www.w3.org/1999/xlink" x="0px" y="0px"
	 viewBox="0 0 248 248" style="enable-background:new 0 0 248 248;" xml:space="preserve">
<style type="text/css">
	.st0{fill:#FFFFFF;}
	.st1{fill:#F2F2F2;}
	.st2{opacity:0.6;}
	.st3{fill:none;}
	.st4{display:none;opacity:0.2;fill:#29ABE2;}
	.st5{clip-path:url(#SVGID_2_);}
	.st6{clip-path:url(#SVGID_4_);}
	.st7{fill:#6D4829;}
	.st8{fill:#999999;}
	.st9{fill:none;stroke:#FFFFFF;stroke-width:0.3021;stroke-linecap:round;stroke-linejoin:round;stroke-miterlimit:10;}
	.st10{fill:#40C5AF;}
	.st11{fill:#E0BB8D;}
	.st12{fill:#E81123;}
	.st13{fill:#505050;}
	.st14{fill:#969696;}
	.st15{fill:#C3986F;}
	.st16{fill:#E1BC8F;}
	.st17{fill:#C49970;}
	.st18{fill:none;stroke:#FFFFFF;stroke-width:0.5271;stroke-linecap:round;stroke-linejoin:round;stroke-miterlimit:10;}
	.st19{fill:#333333;}
	.st20{fill:none;stroke:#FFFFFF;stroke-width:0.8437;stroke-miterlimit:10;}
	.st21{fill:#F05125;}
	.st22{fill:#7FBB42;}
	.st23{fill:#FDB813;}
	.st24{fill:#32A0DA;}
	.st25{fill:#0078D7;}
	.st26{opacity:0.2;fill:none;stroke:#231F20;stroke-miterlimit:10;}
	.st27{display:none;opacity:0.2;}
	.st28{clip-path:url(#SVGID_6_);}
	.st29{clip-path:url(#SVGID_8_);}
	.st30{display:none;}
	.st31{display:inline;opacity:0.2;fill:none;stroke:#231F20;stroke-miterlimit:10;}
	.st32{display:inline;fill:#0078D7;}
	.st33{display:inline;}
	.st34{opacity:0;}
	.st35{opacity:0.8;fill:#FFFFFF;}
	.st36{opacity:0;fill:none;}
	.st37{fill:#ED5426;}
	.st38{fill:#80B841;}
	.st39{fill:#349CD6;}
	.st40{fill:#F9B417;}
	.st41{clip-path:url(#SVGID_10_);}
	.st42{fill:#CCCCCC;}
	.st43{fill:#E6E6E6;}
	.st44{opacity:0.25;}
	.st45{fill:#F25022;}
	.st46{fill:#7FBA00;}
	.st47{fill:#00A4EF;}
	.st48{fill:#FFB900;}
	.st49{opacity:0.4;}
	.st50{opacity:0.35;}
	.st51{fill:#FF0000;fill-opacity:0.2;}
	.st52{fill:#5D5D5D;}
	.st53{fill:none;stroke:#FF0000;stroke-miterlimit:10;}
	.st54{fill:#FF0000;}
	.st55{fill:none;stroke:#00FF00;stroke-width:3;stroke-miterlimit:10;}
	.st56{fill:none;stroke:#00FF00;stroke-width:3;stroke-miterlimit:10;stroke-dasharray:11.9515,11.9515;}
	.st57{fill:none;stroke:#00CCFF;stroke-width:3;stroke-miterlimit:10;}
	.st58{fill:none;stroke:#00CCFF;stroke-width:3;stroke-miterlimit:10;stroke-dasharray:11.9515,11.9515;}
	.st59{display:inline;opacity:0.2;fill:#00CCFF;}
	.st60{display:inline;opacity:0.1;}
	.st61{fill:#B4009E;}
	.st62{opacity:0.5;fill:#B4009E;}
</style>
<g id="white_base">
</g>
<g id="footer">
</g>
<g id="gray_base">
</g>
<g id="content">
	<g>
		<path class="st0" d="M124,248L124,248c68.5,0,124-55.5,124-124v0C248,55.5,192.5,0,124,0h0C55.5,0,0,55.5,0,124v0
			C0,192.5,55.5,248,124,248z"/>
		<g>
			<defs>
				<path id="SVGID_5_" d="M124,248L124,248c68.5,0,124-55.5,124-124v0C248,55.5,192.5,0,124,0h0C55.5,0,0,55.5,0,124v0
					C0,192.5,55.5,248,124,248z"/>
			</defs>
			<clipPath id="SVGID_2_">
				<use xlink:href="#SVGID_5_"  style="overflow:visible;"/>
			</clipPath>
			<g class="st5">
				<defs>
					<rect id="SVGID_7_" x="31.2" y="25.1" width="304.3" height="288.4"/>
				</defs>
				<clipPath id="SVGID_4_">
					<use xlink:href="#SVGID_7_"  style="overflow:visible;"/>
				</clipPath>
				<g class="st6">
					<g>
						<g>
							<polygon class="st11" points="45.5,365.2 45.5,217.5 70.5,217.5 70.5,365.2 45.5,365.2 							"/>
							<polygon class="st15" points="45.3,224.5 70.2,224.5 70.2,217.2 45.3,217.2 45.3,224.5 							"/>
							<polygon class="st7" points="154.4,167 85.9,167 85.9,125.9 154.4,125.9 154.4,167 							"/>
							<path class="st10" d="M76.7,154.7c87.3,0,87.3,0,87.3,0c17.5,0,31.9,15.6,31.9,34.1c0,28.3,0,28.3,0,28.3
								c-31.9,0-31.9,0-31.9,0c0,103.4,0,103.4,0,103.4c-87.3,0-87.3,0-87.3,0c0-103.4,0-103.4,0-103.4c-31.9,0-31.9,0-31.9,0
								c0-28.3,0-28.3,0-28.3C44.8,170.3,59.1,154.7,76.7,154.7L76.7,154.7z"/>
							<path class="st11" d="M192.3,302.2c35.7,0,35.7,0,35.7,0c0-27.3,0-27.3,0-27.3c-32.3,0-32.3,0-32.3,0c0-58,0-58,0-58
								c-24.9,0-24.9,0-24.9,0c0,63.9,0,63.9,0,63.9C170.8,292.4,180.5,302.2,192.3,302.2L192.3,302.2z"/>
							<polygon points="237.2,210.3 322.3,210.3 292,265.8 207.4,265.8 237.2,210.3 							"/>
							<polygon class="st9" points="237.2,210.3 322.3,210.3 292,265.8 207.4,265.8 237.2,210.3 							"/>
							<polygon class="st15" points="170.8,224.4 195.7,224.4 195.7,217.1 170.8,217.1 170.8,224.4 							"/>
							<polygon class="st16" points="119.7,165.7 105.3,157.5 105.3,117.3 134.6,117.3 134.6,157.5 119.7,165.7 							"/>
							<g>
								<path class="st17" d="M162,99.2c0,2.3-1.8,4.5-4.1,4.5c-75.3,0-75.3,0-75.3,0c-2.3,0-4.1-2.3-4.1-4.5c0-9,0-9,0-9
									c0-2.3,1.8-4.1,4.1-4.1c75.3,0,75.3,0,75.3,0c2.3,0,4.1,1.8,4.1,4.1V99.2z"/>
								<path class="st17" d="M105.6,140.8c4.5,1.4,9.5,1.8,14.4,1.8c5,0,9.9-0.5,14.9-1.8c0-23.5,0-23.5,0-23.5
									c-29.3,0-29.3,0-29.3,0V140.8z"/>
								<path class="st16" d="M86.2,72.1c0,53.8,0,53.8,0,53.8c9.5,6.8,21.2,11.3,33.8,11.3c12.6,0,25.3-4.5,34.7-11.3
									c0-53.8,0-53.8,0-53.8H86.2z"/>
								<path class="st7" d="M134.5,42.7c-4.5-2.3-9-3.2-14-3.2c-19.4,0-34.7,15.4-34.7,34.4c0,17.2,0,17.2,0,17.2
									C111.5,87.9,131.8,68,134.5,42.7L134.5,42.7z"/>
								<path class="st7" d="M106.1,42.7c4.5-2.3,9-3.2,14.4-3.2c18.9,0,34.3,15.4,34.3,34.4c0,17.2,0,17.2,0,17.2
									C129.5,87.9,109.2,68,106.1,42.7L106.1,42.7z"/>
								<path class="st0" d="M105.6,117.3c3.6,4.5,8.6,7.2,14.9,7.2c5.9,0,11.3-2.7,14.4-7.2H105.6z"/>
								<path class="st17" d="M115.6,108.7c1.4,1.4,2.7,2.3,5,2.3c1.8,0,3.6-0.9,4.5-2.3H115.6z"/>
								<path class="st19" d="M107,94.7c0,1.4-1.4,2.3-2.7,2.3c-1.4,0-2.3-0.9-2.3-2.3c0-1.4,0.9-2.3,2.3-2.3
									C105.6,92.4,107,93.3,107,94.7L107,94.7z"/>
								<path class="st19" d="M139,94.7c0,1.4-1.4,2.3-2.7,2.3s-2.3-0.9-2.3-2.3c0-1.4,0.9-2.3,2.3-2.3S139,93.3,139,94.7L139,94.7z
									"/>
							</g>
							<g>
								<rect x="112" y="211.8" class="st0" width="16.7" height="27.4"/>
								<line class="st20" x1="112.7" y1="212.3" x2="107.1" y2="158.3"/>
								<line class="st20" x1="127.9" y1="212.2" x2="133.5" y2="158.3"/>
								<g>
									<rect x="115" y="220.2" class="st21" width="4.9" height="4.9"/>
									<rect x="120.6" y="220.2" class="st22" width="4.9" height="4.9"/>
									<rect x="120.6" y="225.8" class="st23" width="4.9" height="4.9"/>
									<rect x="115" y="225.8" class="st24" width="4.9" height="4.9"/>
								</g>
							</g>
						</g>
					</g>
				</g>
			</g>
		</g>
	</g>
</g>
<g id="hrz_line" class="st30">
</g>
<g id="Support_Header_-_Home">
</g>
<g id="Browder_chrome">
</g>
<g id="verticla_spacing" class="st30">
</g>
<g id="Content_padding__x28_for_alignment_x29_" class="st30">
</g>
<g id="Margins" class="st30">
</g>
<g id="Grid:_1084" class="st30">
</g>
</svg>
